<svg id="Component_123_1" data-name="Component 123 – 1" xmlns="http://www.w3.org/2000/svg" width="20.202" height="19.6" viewBox="0 0 20.202 19.6">
  <path id="Path_5759" data-name="Path 5759" d="M162.415,219.794a9.775,9.775,0,0,0-8.682,14.26L152,239.1a.22.22,0,0,0,.3.271l4.275-1.974a9.772,9.772,0,1,0,5.843-17.606Zm-5.49,11.294a1.522,1.522,0,1,1,1.522-1.522A1.522,1.522,0,0,1,156.925,231.088Zm5.49,0a1.522,1.522,0,1,1,1.522-1.522A1.522,1.522,0,0,1,162.415,231.088Zm5.49,0a1.522,1.522,0,1,1,1.522-1.522A1.522,1.522,0,0,1,167.9,231.088Z" transform="translate(-151.984 -219.794)" fill="#bdd700" fill-rule="evenodd"/>
</svg>
